<svg width="30" height="30" viewBox="0 0 150 150" fill="none" xmlns="http://www.w3.org/2000/svg">
<path d="M36.302 41.4913L54.441 59.6277C55.161 60.3475 55.161 61.5145 54.4411 62.2345L49.9538 66.7219C49.2339 67.4416 48.067 67.4417 47.3472 66.722L34.9986 54.376L27.7614 61.6133L22.6529 66.7218C21.9331 67.4416 20.7661 67.4416 20.0462 66.7218L15.559 62.2344C14.8392 61.5146 14.8392 60.3475 15.559 59.6277L27.7614 47.4253L33.6954 41.4913C34.4151 40.7716 35.5822 40.7714 36.302 41.4913Z" fill="#2D3142"/>
<path d="M27.9076 47.2849L35.0015 54.3788L32.2901 57.0903L27.7614 61.6133L22.6529 66.7218C21.9331 67.4416 20.7661 67.4416 20.0463 66.7218L15.5593 62.2348C14.8393 61.5148 14.8395 60.3475 15.5596 59.6278L25.1959 49.9964L27.9076 47.2849Z" fill="#EF8354"/>
<path d="M27.9076 47.2849L35.0015 54.3788L33.2783 56.0991L26.1844 49.0052L27.9076 47.2849Z" fill="#2D3142"/>
<path d="M36.302 22.582L54.441 40.7184C55.161 41.4382 55.161 42.6053 54.4411 43.3252L49.9538 47.8126C49.2339 48.5323 48.067 48.5324 47.3472 47.8127L34.9986 35.4668L27.7614 42.704L22.6529 47.8125C21.9331 48.5323 20.7661 48.5323 20.0462 47.8125L15.559 43.3252C14.8392 42.6054 14.8392 41.4384 15.559 40.7185L27.7614 28.5161L33.6954 22.5821C34.4151 21.8623 35.5822 21.8622 36.302 22.582Z" fill="#EF8354"/>
<path d="M27.9076 28.3755L35.0015 35.4695L32.2901 38.181L27.7614 42.704L22.6529 47.8125C21.9331 48.5323 20.7661 48.5323 20.0463 47.8125L15.5593 43.3255C14.8393 42.6055 14.8395 41.4382 15.5596 40.7185L25.1959 31.0871L27.9076 28.3755Z" fill="#2D3142"/>
<path d="M27.9076 28.3755L35.0015 35.4695L33.2783 37.1898L26.1844 30.0959L27.9076 28.3755Z" fill="#EF8354"/>
<path d="M36.302 3.27812L54.441 21.4145C55.161 22.1344 55.161 23.3014 54.4411 24.0214L49.9538 28.5086C49.2339 29.2284 48.067 29.2284 47.3472 28.5087L34.9986 16.1629L27.7614 23.4001L22.6529 28.5086C21.9331 29.2284 20.7661 29.2284 20.0462 28.5086L15.559 24.0214C14.8392 23.3015 14.8392 22.1345 15.559 21.4147L27.7614 9.21226L33.6954 3.27826C34.4151 2.55843 35.5822 2.55843 36.302 3.27812Z" fill="#2D3142"/>
<path d="M27.9076 9.07184L35.0015 16.1658L32.2901 18.8773L27.7614 23.4002L22.6529 28.5086C21.9331 29.2284 20.7661 29.2284 20.0463 28.5086L15.5593 24.0216C14.8393 23.3017 14.8395 22.1344 15.5596 21.4147L25.1959 11.7832L27.9076 9.07184Z" fill="#EF8354"/>
<path d="M27.9076 9.07184L35.0015 16.1658L33.2783 17.886L26.1844 10.792L27.9076 9.07184Z" fill="#2D3142"/>
<path d="M67.5406 66.7985C66.9741 66.7985 66.5152 67.2576 66.5152 67.8239V68.9746C66.5152 69.5409 66.9741 70 67.5406 70C68.107 70 68.566 69.5409 68.566 68.9746V67.8239C68.566 67.2576 68.1069 66.7985 67.5406 66.7985Z" fill="#EF8354"/>
<path d="M61.4876 66.7985C60.9212 66.7985 60.4622 67.2576 60.4622 67.8239V68.9746C60.4622 69.5409 60.9212 70 61.4876 70C62.0541 70 62.513 69.5409 62.513 68.9746V67.8239C62.513 67.2576 62.0541 66.7985 61.4876 66.7985Z" fill="#EF8354"/>
<path d="M55.4348 66.7985C54.8684 66.7985 54.4094 67.2576 54.4094 67.8239V68.9746C54.4094 69.5409 54.8684 70 55.4348 70C56.0012 70 56.4602 69.5409 56.4602 68.9746V67.8239C56.4602 67.2576 56.0011 66.7985 55.4348 66.7985Z" fill="#EF8354"/>
<path d="M15.5906 2.17615V1.02539C15.5906 0.459102 15.1316 0 14.5652 0C13.9988 0 13.5398 0.459102 13.5398 1.02539V2.17615C13.5398 2.74244 13.9988 3.20154 14.5652 3.20154C15.1316 3.20154 15.5906 2.74244 15.5906 2.17615Z" fill="#2D3142"/>
<path d="M8.51239 0C7.94596 0 7.487 0.459102 7.487 1.02539V2.17615C7.487 2.74244 7.94596 3.20154 8.51239 3.20154C9.07881 3.20154 9.53778 2.74244 9.53778 2.17615V1.02539C9.53778 0.459102 9.07868 0 8.51239 0Z" fill="#2D3142"/>
<path d="M2.45943 0C1.89301 0 1.43404 0.459102 1.43404 1.02539V2.17615C1.43404 2.74244 1.89301 3.20154 2.45943 3.20154C3.02586 3.20154 3.48482 2.74244 3.48482 2.17615V1.02539C3.48482 0.459102 3.02586 0 2.45943 0Z" fill="#2D3142"/>
</svg>
