<svg width="187" height="31" viewBox="0 0 187 31" fill="none" xmlns="http://www.w3.org/2000/svg">
<path d="M46.864 21.168C46.2667 21.168 45.6693 21.0607 45.072 20.846C44.484 20.622 43.9567 20.2907 43.49 19.852L44.666 18.438C44.9927 18.718 45.352 18.9467 45.744 19.124C46.1453 19.3013 46.5373 19.39 46.92 19.39C47.3493 19.39 47.6667 19.3107 47.872 19.152C48.0867 18.9933 48.194 18.7787 48.194 18.508C48.194 18.368 48.1613 18.2467 48.096 18.144C48.04 18.0413 47.9513 17.9527 47.83 17.878C47.718 17.794 47.578 17.7193 47.41 17.654C47.2513 17.5793 47.074 17.5 46.878 17.416L45.688 16.912C45.4547 16.8187 45.226 16.6973 45.002 16.548C44.7873 16.3987 44.5913 16.226 44.414 16.03C44.246 15.8247 44.1107 15.5913 44.008 15.33C43.9053 15.0593 43.854 14.756 43.854 14.42C43.854 14.0467 43.9333 13.6967 44.092 13.37C44.2507 13.034 44.4747 12.7447 44.764 12.502C45.0533 12.25 45.394 12.054 45.786 11.914C46.1873 11.774 46.626 11.704 47.102 11.704C47.634 11.704 48.1567 11.8067 48.67 12.012C49.1927 12.2173 49.65 12.516 50.042 12.908L48.992 14.21C48.6933 13.9767 48.3947 13.7993 48.096 13.678C47.7973 13.5473 47.466 13.482 47.102 13.482C46.7473 13.482 46.4627 13.5567 46.248 13.706C46.0427 13.846 45.94 14.0467 45.94 14.308C45.94 14.448 45.9727 14.5693 46.038 14.672C46.1127 14.7653 46.2107 14.854 46.332 14.938C46.4627 15.0127 46.612 15.0873 46.78 15.162C46.948 15.2273 47.13 15.302 47.326 15.386L48.502 15.862C49.062 16.086 49.5007 16.394 49.818 16.786C50.1447 17.178 50.308 17.696 50.308 18.34C50.308 18.7227 50.2287 19.0867 50.07 19.432C49.9207 19.768 49.6967 20.0667 49.398 20.328C49.1087 20.58 48.7493 20.7853 48.32 20.944C47.8907 21.0933 47.4053 21.168 46.864 21.168ZM54.7973 21.168C54.3026 21.168 53.8406 21.0887 53.4113 20.93C52.982 20.762 52.6086 20.524 52.2913 20.216C51.974 19.8987 51.7266 19.516 51.5493 19.068C51.372 18.62 51.2833 18.1067 51.2833 17.528C51.2833 16.968 51.3766 16.464 51.5633 16.016C51.75 15.5587 51.9926 15.176 52.2913 14.868C52.5993 14.5507 52.9493 14.308 53.3413 14.14C53.7333 13.972 54.1393 13.888 54.5593 13.888C55.054 13.888 55.4833 13.972 55.8473 14.14C56.2206 14.308 56.5286 14.5413 56.7713 14.84C57.0233 15.1387 57.21 15.4933 57.3313 15.904C57.4526 16.3053 57.5133 16.744 57.5133 17.22C57.5133 17.4067 57.504 17.584 57.4853 17.752C57.4666 17.92 57.448 18.046 57.4293 18.13H53.2713C53.3646 18.634 53.57 19.0073 53.8873 19.25C54.214 19.4833 54.6106 19.6 55.0773 19.6C55.572 19.6 56.0713 19.446 56.5753 19.138L57.2613 20.384C56.9066 20.6267 56.51 20.818 56.0713 20.958C55.642 21.098 55.2173 21.168 54.7973 21.168ZM53.2573 16.772H55.7633C55.7633 16.38 55.6746 16.0627 55.4973 15.82C55.32 15.5773 55.0213 15.456 54.6013 15.456C54.2746 15.456 53.9853 15.5633 53.7333 15.778C53.4906 15.9927 53.332 16.324 53.2573 16.772ZM58.9354 21V14.056H60.6154L60.7554 15.274H60.8114C61.0634 14.798 61.3667 14.448 61.7214 14.224C62.0761 14 62.4307 13.888 62.7854 13.888C62.9814 13.888 63.1401 13.902 63.2614 13.93C63.3921 13.9487 63.5087 13.9813 63.6114 14.028L63.2754 15.806C63.1447 15.7687 63.0234 15.7407 62.9114 15.722C62.7994 15.7033 62.6687 15.694 62.5194 15.694C62.2581 15.694 61.9827 15.7873 61.6934 15.974C61.4134 16.1607 61.1801 16.492 60.9934 16.968V21H58.9354ZM66.2052 21L63.8672 14.056H65.9392L66.8352 17.332C66.9286 17.6773 67.0172 18.032 67.1012 18.396C67.1946 18.7507 67.2879 19.11 67.3812 19.474H67.4372C67.5212 19.11 67.6052 18.7507 67.6892 18.396C67.7826 18.032 67.8759 17.6773 67.9692 17.332L68.8792 14.056H70.8532L68.5852 21H66.2052ZM74.936 21.168C74.4413 21.168 73.9793 21.0887 73.55 20.93C73.1206 20.762 72.7473 20.524 72.43 20.216C72.1126 19.8987 71.8653 19.516 71.688 19.068C71.5106 18.62 71.422 18.1067 71.422 17.528C71.422 16.968 71.5153 16.464 71.702 16.016C71.8886 15.5587 72.1313 15.176 72.43 14.868C72.738 14.5507 73.088 14.308 73.48 14.14C73.872 13.972 74.278 13.888 74.698 13.888C75.1926 13.888 75.622 13.972 75.986 14.14C76.3593 14.308 76.6673 14.5413 76.91 14.84C77.162 15.1387 77.3486 15.4933 77.47 15.904C77.5913 16.3053 77.652 16.744 77.652 17.22C77.652 17.4067 77.6426 17.584 77.624 17.752C77.6053 17.92 77.5866 18.046 77.568 18.13H73.41C73.5033 18.634 73.7086 19.0073 74.026 19.25C74.3526 19.4833 74.7493 19.6 75.216 19.6C75.7106 19.6 76.21 19.446 76.714 19.138L77.4 20.384C77.0453 20.6267 76.6486 20.818 76.21 20.958C75.7806 21.098 75.356 21.168 74.936 21.168ZM73.396 16.772H75.902C75.902 16.38 75.8133 16.0627 75.636 15.82C75.4586 15.5773 75.16 15.456 74.74 15.456C74.4133 15.456 74.124 15.5633 73.872 15.778C73.6293 15.9927 73.4706 16.324 73.396 16.772ZM79.0741 21V14.056H80.7541L80.8941 15.274H80.9501C81.2021 14.798 81.5054 14.448 81.8601 14.224C82.2147 14 82.5694 13.888 82.9241 13.888C83.1201 13.888 83.2787 13.902 83.4001 13.93C83.5307 13.9487 83.6474 13.9813 83.7501 14.028L83.4141 15.806C83.2834 15.7687 83.1621 15.7407 83.0501 15.722C82.9381 15.7033 82.8074 15.694 82.6581 15.694C82.3967 15.694 82.1214 15.7873 81.8321 15.974C81.5521 16.1607 81.3187 16.492 81.1321 16.968V21H79.0741ZM86.5868 21.168C86.1295 21.168 85.6581 21.0793 85.1728 20.902C84.6968 20.7247 84.2815 20.4913 83.9268 20.202L84.8508 18.914C85.1681 19.1567 85.4715 19.3387 85.7608 19.46C86.0501 19.5813 86.3441 19.642 86.6428 19.642C86.9508 19.642 87.1748 19.5907 87.3148 19.488C87.4548 19.3853 87.5248 19.2407 87.5248 19.054C87.5248 18.942 87.4828 18.844 87.3988 18.76C87.3241 18.6667 87.2168 18.5827 87.0768 18.508C86.9461 18.4333 86.7968 18.368 86.6288 18.312C86.4608 18.2467 86.2881 18.1767 86.1108 18.102C85.8961 18.018 85.6815 17.92 85.4668 17.808C85.2521 17.696 85.0561 17.5607 84.8788 17.402C84.7015 17.234 84.5568 17.0427 84.4448 16.828C84.3328 16.604 84.2768 16.3473 84.2768 16.058C84.2768 15.7407 84.3375 15.4467 84.4588 15.176C84.5895 14.9053 84.7715 14.6767 85.0048 14.49C85.2381 14.3033 85.5181 14.1587 85.8448 14.056C86.1715 13.944 86.5355 13.888 86.9368 13.888C87.4688 13.888 87.9355 13.9813 88.3368 14.168C88.7381 14.3453 89.0881 14.546 89.3868 14.77L88.4628 16.002C88.2108 15.8153 87.9635 15.6707 87.7208 15.568C87.4781 15.4653 87.2355 15.414 86.9928 15.414C86.4701 15.414 86.2088 15.596 86.2088 15.96C86.2088 16.072 86.2461 16.17 86.3208 16.254C86.3955 16.3287 86.4935 16.3987 86.6148 16.464C86.7455 16.5293 86.8901 16.5947 87.0488 16.66C87.2168 16.716 87.3895 16.7767 87.5668 16.842C87.7908 16.926 88.0101 17.024 88.2248 17.136C88.4488 17.2387 88.6495 17.3693 88.8268 17.528C89.0135 17.6867 89.1628 17.8827 89.2748 18.116C89.3868 18.34 89.4428 18.6107 89.4428 18.928C89.4428 19.2453 89.3821 19.5393 89.2608 19.81C89.1395 20.0807 88.9575 20.3187 88.7148 20.524C88.4721 20.72 88.1735 20.8787 87.8188 21C87.4641 21.112 87.0535 21.168 86.5868 21.168ZM93.7206 21V11.872H95.7786V19.264H99.3906V21H93.7206ZM103.589 21.168C103.151 21.168 102.726 21.0887 102.315 20.93C101.905 20.762 101.541 20.524 101.223 20.216C100.915 19.908 100.668 19.53 100.481 19.082C100.295 18.6247 100.201 18.1067 100.201 17.528C100.201 16.9493 100.295 16.436 100.481 15.988C100.668 15.5307 100.915 15.148 101.223 14.84C101.541 14.532 101.905 14.2987 102.315 14.14C102.726 13.972 103.151 13.888 103.589 13.888C104.028 13.888 104.448 13.972 104.849 14.14C105.26 14.2987 105.619 14.532 105.927 14.84C106.245 15.148 106.497 15.5307 106.683 15.988C106.87 16.436 106.963 16.9493 106.963 17.528C106.963 18.1067 106.87 18.6247 106.683 19.082C106.497 19.53 106.245 19.908 105.927 20.216C105.619 20.524 105.26 20.762 104.849 20.93C104.448 21.0887 104.028 21.168 103.589 21.168ZM103.589 19.502C104.009 19.502 104.327 19.3247 104.541 18.97C104.756 18.6153 104.863 18.1347 104.863 17.528C104.863 16.9213 104.756 16.4407 104.541 16.086C104.327 15.7313 104.009 15.554 103.589 15.554C103.16 15.554 102.838 15.7313 102.623 16.086C102.418 16.4407 102.315 16.9213 102.315 17.528C102.315 18.1347 102.418 18.6153 102.623 18.97C102.838 19.3247 103.16 19.502 103.589 19.502ZM109.973 21.168C109.655 21.168 109.366 21.112 109.105 21C108.853 20.8973 108.638 20.7527 108.461 20.566C108.283 20.37 108.143 20.146 108.041 19.894C107.947 19.642 107.901 19.3667 107.901 19.068C107.901 18.34 108.209 17.7707 108.825 17.36C109.441 16.9493 110.435 16.674 111.807 16.534C111.788 16.226 111.695 15.9833 111.527 15.806C111.368 15.6193 111.097 15.526 110.715 15.526C110.416 15.526 110.117 15.582 109.819 15.694C109.529 15.806 109.217 15.96 108.881 16.156L108.139 14.798C108.587 14.5273 109.053 14.308 109.539 14.14C110.033 13.972 110.556 13.888 111.107 13.888C112.003 13.888 112.684 14.1447 113.151 14.658C113.627 15.162 113.865 15.9507 113.865 17.024V21H112.185L112.045 20.286H111.989C111.69 20.5473 111.377 20.762 111.051 20.93C110.724 21.0887 110.365 21.168 109.973 21.168ZM110.673 19.572C110.906 19.572 111.107 19.5207 111.275 19.418C111.443 19.3153 111.62 19.1707 111.807 18.984V17.766C111.079 17.8687 110.575 18.018 110.295 18.214C110.015 18.41 109.875 18.6433 109.875 18.914C109.875 19.138 109.945 19.306 110.085 19.418C110.234 19.5207 110.43 19.572 110.673 19.572ZM118.083 21.168C117.654 21.168 117.262 21.084 116.907 20.916C116.562 20.748 116.263 20.51 116.011 20.202C115.769 19.8847 115.577 19.502 115.437 19.054C115.307 18.606 115.241 18.0973 115.241 17.528C115.241 16.9587 115.321 16.45 115.479 16.002C115.647 15.554 115.862 15.176 116.123 14.868C116.394 14.5507 116.702 14.308 117.047 14.14C117.402 13.972 117.761 13.888 118.125 13.888C118.517 13.888 118.839 13.9533 119.091 14.084C119.343 14.2147 119.591 14.392 119.833 14.616L119.749 13.552V11.186H121.807V21H120.127L119.987 20.314H119.931C119.689 20.5567 119.404 20.762 119.077 20.93C118.751 21.0887 118.419 21.168 118.083 21.168ZM118.615 19.488C118.839 19.488 119.04 19.4413 119.217 19.348C119.404 19.2547 119.581 19.0913 119.749 18.858V16.016C119.563 15.848 119.371 15.7313 119.175 15.666C118.979 15.6007 118.788 15.568 118.601 15.568C118.275 15.568 117.985 15.7267 117.733 16.044C117.481 16.352 117.355 16.8373 117.355 17.5C117.355 18.1907 117.463 18.6947 117.677 19.012C117.901 19.3293 118.214 19.488 118.615 19.488ZM126.601 21V11.872H129.723C130.199 11.872 130.638 11.9093 131.039 11.984C131.45 12.0493 131.805 12.1707 132.103 12.348C132.411 12.5253 132.649 12.7587 132.817 13.048C132.995 13.3373 133.083 13.7013 133.083 14.14C133.083 14.3453 133.055 14.5507 132.999 14.756C132.943 14.9613 132.864 15.1527 132.761 15.33C132.659 15.5073 132.533 15.666 132.383 15.806C132.243 15.946 132.08 16.0487 131.893 16.114V16.17C132.127 16.226 132.341 16.3147 132.537 16.436C132.733 16.548 132.906 16.6927 133.055 16.87C133.205 17.0473 133.321 17.2573 133.405 17.5C133.489 17.7333 133.531 18.004 133.531 18.312C133.531 18.7787 133.438 19.18 133.251 19.516C133.074 19.852 132.822 20.132 132.495 20.356C132.178 20.5707 131.805 20.734 131.375 20.846C130.946 20.9487 130.484 21 129.989 21H126.601ZM128.659 15.526H129.625C130.129 15.526 130.493 15.428 130.717 15.232C130.951 15.036 131.067 14.7747 131.067 14.448C131.067 14.0933 130.951 13.8413 130.717 13.692C130.484 13.5427 130.125 13.468 129.639 13.468H128.659V15.526ZM128.659 19.404H129.821C130.951 19.404 131.515 18.9933 131.515 18.172C131.515 17.7707 131.375 17.486 131.095 17.318C130.815 17.1407 130.391 17.052 129.821 17.052H128.659V19.404ZM136.66 21.168C136.343 21.168 136.053 21.112 135.792 21C135.54 20.8973 135.325 20.7527 135.148 20.566C134.971 20.37 134.831 20.146 134.728 19.894C134.635 19.642 134.588 19.3667 134.588 19.068C134.588 18.34 134.896 17.7707 135.512 17.36C136.128 16.9493 137.122 16.674 138.494 16.534C138.475 16.226 138.382 15.9833 138.214 15.806C138.055 15.6193 137.785 15.526 137.402 15.526C137.103 15.526 136.805 15.582 136.506 15.694C136.217 15.806 135.904 15.96 135.568 16.156L134.826 14.798C135.274 14.5273 135.741 14.308 136.226 14.14C136.721 13.972 137.243 13.888 137.794 13.888C138.69 13.888 139.371 14.1447 139.838 14.658C140.314 15.162 140.552 15.9507 140.552 17.024V21H138.872L138.732 20.286H138.676C138.377 20.5473 138.065 20.762 137.738 20.93C137.411 21.0887 137.052 21.168 136.66 21.168ZM137.36 19.572C137.593 19.572 137.794 19.5207 137.962 19.418C138.13 19.3153 138.307 19.1707 138.494 18.984V17.766C137.766 17.8687 137.262 18.018 136.982 18.214C136.702 18.41 136.562 18.6433 136.562 18.914C136.562 19.138 136.632 19.306 136.772 19.418C136.921 19.5207 137.117 19.572 137.36 19.572ZM144.183 21.168C143.828 21.168 143.529 21.112 143.287 21C143.044 20.888 142.848 20.734 142.699 20.538C142.559 20.3327 142.456 20.09 142.391 19.81C142.325 19.5207 142.293 19.1987 142.293 18.844V11.186H144.351V18.928C144.351 19.1427 144.388 19.292 144.463 19.376C144.547 19.46 144.631 19.502 144.715 19.502C144.761 19.502 144.799 19.502 144.827 19.502C144.864 19.502 144.911 19.4927 144.967 19.474L145.219 21C145.107 21.0467 144.962 21.084 144.785 21.112C144.617 21.1493 144.416 21.168 144.183 21.168ZM148.049 21.168C147.731 21.168 147.442 21.112 147.181 21C146.929 20.8973 146.714 20.7527 146.537 20.566C146.359 20.37 146.219 20.146 146.117 19.894C146.023 19.642 145.977 19.3667 145.977 19.068C145.977 18.34 146.285 17.7707 146.901 17.36C147.517 16.9493 148.511 16.674 149.883 16.534C149.864 16.226 149.771 15.9833 149.603 15.806C149.444 15.6193 149.173 15.526 148.791 15.526C148.492 15.526 148.193 15.582 147.895 15.694C147.605 15.806 147.293 15.96 146.957 16.156L146.215 14.798C146.663 14.5273 147.129 14.308 147.615 14.14C148.109 13.972 148.632 13.888 149.183 13.888C150.079 13.888 150.76 14.1447 151.227 14.658C151.703 15.162 151.941 15.9507 151.941 17.024V21H150.261L150.121 20.286H150.065C149.766 20.5473 149.453 20.762 149.127 20.93C148.8 21.0887 148.441 21.168 148.049 21.168ZM148.749 19.572C148.982 19.572 149.183 19.5207 149.351 19.418C149.519 19.3153 149.696 19.1707 149.883 18.984V17.766C149.155 17.8687 148.651 18.018 148.371 18.214C148.091 18.41 147.951 18.6433 147.951 18.914C147.951 19.138 148.021 19.306 148.161 19.418C148.31 19.5207 148.506 19.572 148.749 19.572ZM153.681 21V14.056H155.361L155.501 14.938H155.557C155.856 14.658 156.183 14.4153 156.537 14.21C156.892 13.9953 157.307 13.888 157.783 13.888C158.539 13.888 159.085 14.1353 159.421 14.63C159.767 15.1247 159.939 15.8107 159.939 16.688V21H157.881V16.954C157.881 16.45 157.811 16.1047 157.671 15.918C157.541 15.7313 157.326 15.638 157.027 15.638C156.766 15.638 156.542 15.6987 156.355 15.82C156.169 15.932 155.963 16.0953 155.739 16.31V21H153.681ZM164.717 21.168C164.232 21.168 163.779 21.0887 163.359 20.93C162.949 20.762 162.589 20.524 162.281 20.216C161.973 19.908 161.731 19.53 161.553 19.082C161.376 18.6247 161.287 18.1067 161.287 17.528C161.287 16.9493 161.385 16.436 161.581 15.988C161.777 15.5307 162.039 15.148 162.365 14.84C162.701 14.532 163.089 14.2987 163.527 14.14C163.966 13.972 164.423 13.888 164.899 13.888C165.329 13.888 165.707 13.958 166.033 14.098C166.369 14.238 166.668 14.4153 166.929 14.63L165.963 15.96C165.637 15.6893 165.324 15.554 165.025 15.554C164.521 15.554 164.125 15.7313 163.835 16.086C163.546 16.4407 163.401 16.9213 163.401 17.528C163.401 18.1347 163.546 18.6153 163.835 18.97C164.134 19.3247 164.507 19.502 164.955 19.502C165.179 19.502 165.394 19.4553 165.599 19.362C165.814 19.2593 166.015 19.138 166.201 18.998L167.013 20.342C166.668 20.6407 166.295 20.8553 165.893 20.986C165.492 21.1073 165.1 21.168 164.717 21.168ZM168.228 21V14.056H170.286V21H168.228ZM169.25 13.034C168.905 13.034 168.62 12.936 168.396 12.74C168.172 12.5347 168.06 12.2733 168.06 11.956C168.06 11.6387 168.172 11.382 168.396 11.186C168.62 10.99 168.905 10.892 169.25 10.892C169.605 10.892 169.89 10.99 170.104 11.186C170.328 11.382 170.44 11.6387 170.44 11.956C170.44 12.2733 170.328 12.5347 170.104 12.74C169.89 12.936 169.605 13.034 169.25 13.034ZM172.098 21V14.056H173.778L173.918 14.938H173.974C174.272 14.658 174.599 14.4153 174.954 14.21C175.308 13.9953 175.724 13.888 176.2 13.888C176.956 13.888 177.502 14.1353 177.838 14.63C178.183 15.1247 178.356 15.8107 178.356 16.688V21H176.298V16.954C176.298 16.45 176.228 16.1047 176.088 15.918C175.957 15.7313 175.742 15.638 175.444 15.638C175.182 15.638 174.958 15.6987 174.772 15.82C174.585 15.932 174.38 16.0953 174.156 16.31V21H172.098ZM182.587 23.954C182.177 23.954 181.794 23.9167 181.439 23.842C181.094 23.7767 180.786 23.674 180.515 23.534C180.254 23.394 180.049 23.212 179.899 22.988C179.75 22.764 179.675 22.498 179.675 22.19C179.675 21.63 180.007 21.1633 180.669 20.79V20.734C180.483 20.6127 180.329 20.4587 180.207 20.272C180.086 20.0853 180.025 19.8473 180.025 19.558C180.025 19.306 180.1 19.068 180.249 18.844C180.399 18.6107 180.585 18.4147 180.809 18.256V18.2C180.567 18.032 180.347 17.794 180.151 17.486C179.965 17.1687 179.871 16.8047 179.871 16.394C179.871 15.974 179.951 15.61 180.109 15.302C180.268 14.9847 180.478 14.7233 180.739 14.518C181.01 14.3033 181.318 14.1447 181.663 14.042C182.009 13.9393 182.368 13.888 182.741 13.888C183.152 13.888 183.511 13.944 183.819 14.056H186.353V15.554H185.247C185.313 15.6567 185.364 15.7873 185.401 15.946C185.448 16.1047 185.471 16.2773 185.471 16.464C185.471 16.8653 185.401 17.2153 185.261 17.514C185.121 17.8033 184.925 18.046 184.673 18.242C184.431 18.4287 184.141 18.5687 183.805 18.662C183.479 18.7553 183.124 18.802 182.741 18.802C182.471 18.802 182.191 18.7553 181.901 18.662C181.808 18.7367 181.743 18.8113 181.705 18.886C181.668 18.9607 181.649 19.0587 181.649 19.18C181.649 19.3573 181.724 19.488 181.873 19.572C182.032 19.656 182.307 19.698 182.699 19.698H183.819C184.678 19.698 185.331 19.838 185.779 20.118C186.237 20.3887 186.465 20.8367 186.465 21.462C186.465 21.826 186.372 22.1573 186.185 22.456C186.008 22.764 185.751 23.0253 185.415 23.24C185.079 23.464 184.673 23.6367 184.197 23.758C183.721 23.8887 183.185 23.954 182.587 23.954ZM182.741 17.556C183.012 17.556 183.236 17.4627 183.413 17.276C183.6 17.08 183.693 16.786 183.693 16.394C183.693 16.03 183.6 15.7547 183.413 15.568C183.236 15.372 183.012 15.274 182.741 15.274C182.471 15.274 182.242 15.3673 182.055 15.554C181.878 15.7407 181.789 16.0207 181.789 16.394C181.789 16.786 181.878 17.08 182.055 17.276C182.242 17.4627 182.471 17.556 182.741 17.556ZM182.909 22.666C183.376 22.666 183.759 22.582 184.057 22.414C184.356 22.2553 184.505 22.0547 184.505 21.812C184.505 21.5973 184.412 21.4527 184.225 21.378C184.048 21.3033 183.787 21.266 183.441 21.266H182.727C182.485 21.266 182.289 21.2567 182.139 21.238C181.99 21.2287 181.859 21.21 181.747 21.182C181.495 21.406 181.369 21.6347 181.369 21.868C181.369 22.1293 181.509 22.3253 181.789 22.456C182.069 22.596 182.443 22.666 182.909 22.666Z" fill="#EF8354"/>
<g clip-path="url(#clip0_1_15)">
<path d="M30.3934 28.5283H19.5563C19.1943 28.5283 18.9009 28.8218 18.9009 29.1837C18.9009 29.5457 19.1944 29.8391 19.5563 29.8391H30.3934C30.7554 29.8391 31.0488 29.5457 31.0488 29.1837C31.0488 28.8218 30.7553 28.5283 30.3934 28.5283Z" fill="#EF8354" stroke="#EF8354" stroke-width="0.1"/>
<path d="M11.3829 28.5283H0.606385C0.244367 28.5283 -0.0490234 28.8218 -0.0490234 29.1837C-0.0490234 29.5457 0.244431 29.8391 0.606385 29.8391H11.3829C11.7449 29.8391 12.0383 29.5457 12.0383 29.1837C12.0383 28.8218 11.7448 28.5283 11.3829 28.5283Z" fill="#EF8354" stroke="#EF8354" stroke-width="0.1"/>
<path d="M15.7393 12.3352H11.0474C10.6854 12.3352 10.392 12.6286 10.392 12.9906C10.392 13.3526 10.6855 13.646 11.0474 13.646H15.7393C16.1013 13.646 16.3947 13.3525 16.3947 12.9906C16.3947 12.6286 16.1013 12.3352 15.7393 12.3352Z" fill="#EF8354" stroke="#EF8354" stroke-width="0.1"/>
<path d="M20.4871 12.5271C20.3651 12.4051 20.1962 12.3351 20.0237 12.3351C19.8506 12.3351 19.6816 12.4051 19.5602 12.5272L19.5957 12.5625L19.5604 12.527C19.4377 12.6491 19.3683 12.8181 19.3683 12.9905C19.3683 13.1628 19.4377 13.3318 19.5604 13.4539C19.6823 13.5758 19.8506 13.6459 20.0237 13.6459C20.1962 13.6459 20.3652 13.5758 20.4871 13.4538C20.609 13.3318 20.6791 13.1629 20.6791 12.9905C20.6791 12.818 20.6091 12.6491 20.4871 12.5271Z" fill="#EF8354" stroke="#EF8354" stroke-width="0.1"/>
<path d="M18.3722 12.527L18.3723 12.5271C18.4944 12.6492 18.5637 12.8181 18.5637 12.9905C18.5637 13.1628 18.4944 13.3318 18.3723 13.4538L18.3722 13.4539C18.2497 13.5758 18.0808 13.6459 17.9083 13.6459C17.7358 13.6459 17.5675 13.5758 17.4451 13.4539L17.445 13.4538C17.323 13.3319 17.2529 13.1636 17.2529 12.9905C17.2529 12.818 17.323 12.6491 17.445 12.5271L18.3722 12.527ZM18.3722 12.527C18.2497 12.4052 18.0814 12.3351 17.9083 12.3351M18.3722 12.527L17.9083 12.3351M17.9083 12.3351C17.7358 12.3351 17.5669 12.4051 17.445 12.5271L17.9083 12.3351ZM17.4803 12.5625C17.3677 12.6751 17.3029 12.8313 17.3029 12.9905C17.3029 13.1503 17.3677 13.3059 17.4803 13.4185C17.5935 13.5311 17.7491 13.5959 17.9083 13.5959C18.0675 13.5959 18.2238 13.5311 18.3369 13.4185C18.4496 13.3059 18.5137 13.1496 18.5137 12.9905C18.5137 12.8313 18.4496 12.6751 18.3369 12.5625H17.4803Z" fill="#EF8354" stroke="#EF8354" stroke-width="0.1"/>
<path d="M15.7393 17.1785H11.0474C10.6854 17.1785 10.392 17.472 10.392 17.834C10.392 18.1959 10.6855 18.4894 11.0474 18.4894H15.7393C16.1013 18.4894 16.3947 18.1959 16.3947 17.834C16.3947 17.472 16.1013 17.1785 15.7393 17.1785Z" fill="#EF8354" stroke="#EF8354" stroke-width="0.1"/>
<path d="M19.5957 17.4058L19.5604 17.3704C19.4377 17.4925 19.3683 17.6615 19.3683 17.8338C19.3683 18.0068 19.4377 18.1752 19.5604 18.2972C19.6824 18.4192 19.8506 18.4892 20.0237 18.4892C20.1962 18.4892 20.3652 18.4192 20.4871 18.2972C20.609 18.1752 20.6791 18.0063 20.6791 17.8338C20.6791 17.6614 20.6091 17.4924 20.4871 17.3705C20.3651 17.2485 20.1962 17.1784 20.0237 17.1784C19.8506 17.1784 19.6822 17.2485 19.5603 17.3705L19.5957 17.4058ZM19.5957 17.4058C19.4825 17.5184 19.4183 17.6747 19.4183 17.8338C19.4183 17.9937 19.4825 18.1493 19.5957 18.2618V17.4058Z" fill="#EF8354" stroke="#EF8354" stroke-width="0.1"/>
<path d="M18.3722 17.3704L18.3723 17.3705C18.4944 17.4925 18.5637 17.6615 18.5637 17.8338C18.5637 18.0062 18.4944 18.1751 18.3723 18.2972L18.3722 18.2973C18.2498 18.4191 18.0815 18.4892 17.9083 18.4892C17.7359 18.4892 17.567 18.4192 17.445 18.2972C17.445 18.2972 17.445 18.2972 17.445 18.2972L17.4803 18.2618C17.3677 18.1493 17.3029 17.993 17.3029 17.8338C17.3029 17.6747 17.3677 17.5184 17.4803 17.4058L18.3722 17.3704ZM18.3722 17.3704C18.2497 17.2485 18.0814 17.1784 17.9083 17.1784C17.7358 17.1784 17.5669 17.2485 17.445 17.3705L18.3722 17.3704Z" fill="#EF8354" stroke="#EF8354" stroke-width="0.1"/>
<path d="M15.7393 22.0219H11.0474C10.6854 22.0219 10.392 22.3154 10.392 22.6774C10.392 23.0393 10.6855 23.3328 11.0474 23.3328H15.7393C16.1013 23.3328 16.3947 23.0393 16.3947 22.6774C16.3947 22.3154 16.1013 22.0219 15.7393 22.0219Z" fill="#EF8354" stroke="#EF8354" stroke-width="0.1"/>
<path d="M20.4871 22.2139L20.487 22.2138C20.3645 22.0919 20.1962 22.0218 20.0237 22.0218C19.8505 22.0218 19.6823 22.0919 19.5598 22.2138L19.5597 22.2139C19.4377 22.3359 19.3683 22.5049 19.3683 22.6772C19.3683 22.8495 19.4377 23.0186 19.5598 23.1406L19.5598 23.1407C19.6824 23.2625 19.8506 23.3326 20.0237 23.3326C20.1962 23.3326 20.3652 23.2626 20.4871 23.1406C20.609 23.0186 20.6791 22.8497 20.6791 22.6772C20.6791 22.5048 20.6091 22.3358 20.4871 22.2139Z" fill="#EF8354" stroke="#EF8354" stroke-width="0.1"/>
<path d="M18.3363 23.1052L18.3716 23.1407C18.4943 23.0186 18.5637 22.8496 18.5637 22.6772C18.5637 22.5049 18.4944 22.3359 18.3716 22.2138C18.2497 22.0919 18.0814 22.0218 17.9083 22.0218L17.4803 23.1052L17.445 23.1406C17.445 23.1406 17.445 23.1406 17.445 23.1406C17.567 23.2626 17.7359 23.3326 17.9083 23.3326C18.0815 23.3326 18.2498 23.2625 18.3717 23.1406L18.3363 23.1052ZM18.3363 23.1052C18.4496 22.9926 18.5137 22.8364 18.5137 22.6772C18.5137 22.518 18.4496 22.3618 18.3363 22.2492V23.1052Z" fill="#EF8354" stroke="#EF8354" stroke-width="0.1"/>
<path d="M23.4282 17.9205C23.4282 16.9383 22.9657 16.0625 22.2474 15.4988C22.9656 14.9351 23.4282 14.0592 23.4282 13.0771C23.4282 11.3803 22.0479 9.99999 20.3511 9.99999H10.6643C8.96754 9.99999 7.58721 11.3803 7.58721 13.0771C7.58721 14.0592 8.04969 14.9351 8.76804 15.4988C8.04975 16.0625 7.58721 16.9383 7.58721 17.9205C7.58721 18.9026 8.04969 19.7785 8.76804 20.3422C8.04975 20.9058 7.58721 21.7817 7.58721 22.7639C7.58721 24.4606 8.96754 25.841 10.6643 25.841H14.8446V27.4366C14.1381 27.7025 13.6338 28.385 13.6338 29.1837C13.6337 30.2128 14.4709 31.05 15.5 31.05C16.5291 31.05 17.3663 30.2128 17.3663 29.1837C17.3663 28.3851 16.862 27.7025 16.1555 27.4366V25.841H20.3511C22.0479 25.841 23.4283 24.4606 23.4283 22.7639C23.4283 21.7817 22.9658 20.9058 22.2474 20.3422C22.9656 19.7785 23.4282 18.9026 23.4282 17.9205ZM8.89796 13.0771C8.89796 12.1033 9.69036 11.3109 10.6642 11.3109H20.351C21.3249 11.3109 22.1173 12.1033 22.1173 13.0771C22.1173 14.051 21.3249 14.8434 20.351 14.8434H10.6642C9.69036 14.8434 8.89796 14.051 8.89796 13.0771ZM15.5 29.7392C15.1938 29.7392 14.9446 29.49 14.9446 29.1838C14.9446 28.8775 15.1938 28.6284 15.5 28.6284C15.8062 28.6284 16.0554 28.8776 16.0554 29.1838C16.0554 29.49 15.8062 29.7392 15.5 29.7392ZM22.1173 22.7639C22.1173 23.7378 21.3249 24.5301 20.351 24.5301H10.6642C9.69036 24.5301 8.89796 23.7378 8.89796 22.7639C8.89796 21.79 9.69036 20.9976 10.6642 20.9976H20.351C21.3249 20.9976 22.1173 21.79 22.1173 22.7639ZM20.351 19.6868H10.6642C9.69036 19.6868 8.89796 18.8944 8.89796 17.9205C8.89796 16.9466 9.69036 16.1542 10.6642 16.1542H20.351C21.3249 16.1542 22.1173 16.9466 22.1173 17.9205C22.1173 18.8944 21.3249 19.6868 20.351 19.6868Z" fill="#EF8354" stroke="#EF8354" stroke-width="0.1"/>
<path d="M5.26161 20.9212L5.26158 20.9212C3.79589 20.6927 2.45223 19.9457 1.4779 18.8177C0.493119 17.6775 -0.0492065 16.2189 -0.0492065 14.7106C-0.0492065 11.2445 2.77057 8.42475 6.23664 8.42475C6.31653 8.42475 6.39668 8.42628 6.47697 8.42936C6.92282 6.16954 8.1059 4.10832 9.85094 2.57204C11.7714 0.881216 14.2399 -0.05 16.8013 -0.05C21.1965 -0.05 25.1195 2.68014 26.6558 6.77392C27.8992 7.33165 28.9612 8.21625 29.7398 9.34641C30.5959 10.589 31.0484 12.0462 31.0484 13.5603C31.0484 17.0775 28.5512 20.1412 25.1102 20.8453L25.1002 20.7963L25.1102 20.8453C24.7555 20.9178 24.4093 20.6893 24.3367 20.3346C24.2641 19.98 24.4927 19.6337 24.8474 19.5611C27.6808 18.9813 29.7376 16.4575 29.7376 13.5603C29.7376 11.0429 28.2281 8.81083 25.8918 7.87336L25.9104 7.82695L25.8918 7.87336C25.7151 7.80244 25.5779 7.65824 25.516 7.47811C24.2379 3.75942 20.7357 1.26088 16.8013 1.26088C12.2132 1.26088 8.28879 4.68417 7.67313 9.2234C7.64973 9.39606 7.55849 9.55232 7.41954 9.65759C7.41953 9.6576 7.41953 9.6576 7.41952 9.65761L7.38933 9.61775L5.26161 20.9212ZM5.26161 20.9212C5.29571 20.9265 5.32964 20.9291 5.36325 20.9291C5.68074 20.9291 5.95965 20.698 6.01013 20.3746C6.06591 20.0169 5.82108 19.6818 5.46347 19.626L5.45576 19.6754L5.26161 20.9212Z" fill="#EF8354" stroke="#EF8354" stroke-width="0.1"/>
</g>
<defs>
<clipPath id="clip0_1_15">
<rect width="31" height="31" fill="white"/>
</clipPath>
</defs>
</svg>
