<svg width="192" height="192" viewBox="0 0 192 192" fill="none" xmlns="http://www.w3.org/2000/svg">
<path d="M180.041 48.0542L88.4941 40.5483V151.452L180.041 143.946V48.0542Z" fill="#1F222D"/>
<path d="M11.9604 48.0542V143.946L96.0015 151.452V40.5483L11.9604 48.0542Z" fill="#333C4C"/>
<path d="M192 0H96.0015L88.4941 24.0264L96.0015 48.0542H192V0Z" fill="#2D3142"/>
<path d="M192 120.026V71.9736H96.0015L88.4941 96L96.0015 120.026H192Z" fill="#2D3142"/>
<path d="M192 192V143.946H96.0015L88.4941 167.974L96.0015 192H192Z" fill="#2D3142"/>
<path d="M0 0H96.0015V48.0542H0V0Z" fill="#4F5D75"/>
<path d="M0 71.9736H96.0015V120.026H0V71.9736Z" fill="#4F5D75"/>
<path d="M0 143.946H96.0015V192H0V143.946Z" fill="#4F5D75"/>
<path d="M122.276 18.4014H174.06V29.6514H122.276V18.4014Z" fill="#B1DDF1"/>
<path d="M122.276 90.375H174.06V101.625H122.276V90.375Z" fill="#B1DDF1"/>
<path d="M122.276 162.349H174.06V173.599H122.276V162.349Z" fill="#B1DDF1"/>
<path d="M17.9399 18.4014H29.8989V29.6514H17.9399V18.4014Z" fill="#B1DDF1"/>
<path d="M41.8594 18.4014H53.8198V29.6514H41.8594V18.4014Z" fill="#EF8354"/>
<path d="M17.9399 90.375H29.8989V101.625H17.9399V90.375Z" fill="#B1DDF1"/>
<path d="M41.8594 90.375H53.8198V101.625H41.8594V90.375Z" fill="#EF8354"/>
<path d="M17.9399 162.349H29.8989V173.599H17.9399V162.349Z" fill="#B1DDF1"/>
<path d="M41.8594 162.349H53.8198V173.599H41.8594V162.349Z" fill="#EF8354"/>
</svg>
